<?xml version="1.0" encoding="UTF-8"?>
<svg width="256px" height="256px" viewBox="0 0 256 256" version="1.1" xmlns="http://www.w3.org/2000/svg" xmlns:xlink="http://www.w3.org/1999/xlink">
    <!-- Generator: Sketch 60.1 (88133) - https://sketch.com -->
    <title>Artboard</title>
    <desc>Created with Sketch.</desc>
    <g id="Artboard" stroke="none" stroke-width="1" fill="none" fill-rule="evenodd">
        <g id="Full-Cart" transform="translate(34.000000, 55.000000)" fill="#3A4791" fill-rule="nonzero">
            <path d="M161.806797,103.036475 L67.3013696,103.036475 C65.5294331,103.036475 63.9443554,101.94822 63.3000149,100.306179 L27.6099922,8.59012923 L8.59550283,8.59012923 L8.59550283,17.1738191 C8.59550283,19.5370705 6.66892461,21.4688837 4.29775142,21.4688837 C1.93302163,21.4688837 0,19.5370705 0,17.1738191 L0,4.29506461 C0,1.93181317 1.93302163,0 4.29775142,0 L30.5610719,0 C32.3330084,0 33.9180861,1.08825475 34.5624267,2.73029595 L70.2395625,94.4463459 L158.84283,94.4463459 L178.772283,42.1521634 L59.5628397,25.7188727 C57.2174401,25.4033432 55.5614849,23.2268337 55.8836552,20.8829004 C56.2122689,18.5582852 58.3257059,16.9420015 60.7226527,17.2188947 L185.29301,34.3927138 C186.588134,34.5730164 187.73506,35.3199841 188.405175,36.4533145 C189.068845,37.5802055 189.184827,38.9453535 188.714458,40.1688352 L165.801708,100.267543 C165.189585,101.935342 163.585177,103.030036 161.800354,103.030036 L161.806797,103.036475 Z M89.7373073,116.398183 C95.5363722,116.398183 100.233615,121.105368 100.233615,126.887928 C100.233615,132.709125 95.5363722,137.403431 89.7373073,137.403431 C83.9382424,137.403431 79.2409999,132.696247 79.2409999,126.887928 C79.2474433,121.098928 83.9575726,116.398183 89.7373073,116.398183 L89.7373073,116.398183 Z M89.7373073,107.814493 C79.2023394,107.814493 70.645497,116.372425 70.645497,126.894368 C70.645497,137.435628 79.2023394,146 89.7373073,146 C100.259388,146 108.829121,137.442068 108.829121,126.894368 C108.835561,116.378865 100.265832,107.814493 89.7373073,107.814493 L89.7373073,107.814493 Z M139.383746,116.398183 C145.182811,116.398183 149.880053,121.105368 149.880053,126.887928 C149.880053,132.709125 145.182811,137.403431 139.383746,137.403431 C133.578238,137.403431 128.874552,132.696247 128.874552,126.887928 C128.874552,121.098928 133.571794,116.398183 139.383746,116.398183 Z M139.383746,107.814493 C128.848778,107.814493 120.285492,116.372425 120.285492,126.894368 C120.285492,137.435628 128.848778,146 139.383746,146 C149.905827,146 158.475556,137.442068 158.475556,126.894368 C158.469113,116.378865 149.899384,107.814493 139.383746,107.814493 L139.383746,107.814493 Z M154.648174,85.8690954 L77.3273085,85.8690954 C74.9625787,85.8690954 73.029557,83.9372822 73.029557,81.5740308 C73.029557,79.2107793 74.9625787,77.2789662 77.3273085,77.2789662 L154.648174,77.2789662 C157.019347,77.2789662 158.945925,79.2107793 158.945925,81.5740308 C158.945925,83.9372822 157.019347,85.8690954 154.648174,85.8690954 Z M154.648174,68.6952763 L77.3273085,68.6952763 C74.9625787,68.6952763 73.029557,66.7634632 73.029557,64.4002117 C73.029557,62.0369603 74.9625787,60.1051471 77.3273085,60.1051471 L154.648174,60.1051471 C157.019347,60.1051471 158.945925,62.0369603 158.945925,64.4002117 C158.945925,66.7634632 157.019347,68.6952763 154.648174,68.6952763 Z M137.470055,51.5214572 L77.3337519,51.5214572 C74.9690221,51.5214572 73.0360004,49.5896441 73.0360004,47.2263926 C73.0360004,44.8631412 74.9690221,42.931328 77.3337519,42.931328 L137.470055,42.931328 C139.841228,42.931328 141.767806,44.8631412 141.767806,47.2263926 C141.767806,49.5896441 139.841228,51.5214572 137.470055,51.5214572 Z" id="Shape"></path>
        </g>
    </g>
</svg>